<?xml version="1.0" encoding="UTF-8"?>
<svg width="135" height="40" viewBox="0 0 135 40" fill="none" xmlns="http://www.w3.org/2000/svg">
  <rect width="135" height="40" rx="6" fill="#000000"/>
  <path d="M30.2 19.8C33.1 19.8 35.3 21.8 35.3 24.9C35.3 28 33.1 30 30.2 30H24.8V19.8H30.2ZM30.2 27.1C31.3 27.1 32.1 26.2 32.1 24.9C32.1 23.6 31.3 22.7 30.2 22.7H28V27.1H30.2Z" fill="white"/>
  <path d="M41.3 25.4L39.1 21.2H42.5L43.5 23.4L44.5 21.2H47.8L45.6 25.4L48 30H44.6L43.5 27.6L42.4 30H39L41.3 25.4Z" fill="white"/>
  <path d="M57.7 21.2L55.2 30H51.8L49.3 21.2H52.7L53.6 25.7L54.5 21.2H57.7Z" fill="white"/>
  <path d="M58.4 21.2H64.5V24H61.6V24.5H64.1V27.2H61.6V27.7H64.5V30H58.4V21.2Z" fill="white"/>
  <path d="M70.5 21.2H73.8V30H70.5V21.2Z" fill="white"/>
  <path d="M80.3 21.2H83.6V30H80.8L78.1 26.1V30H74.8V21.2H77.6L80.3 25.1V21.2Z" fill="white"/>
  <path d="M84.5 21.2H90.6V24H87.7V24.5H90.2V27.2H87.7V27.7H90.6V30H84.5V21.2Z" fill="white"/>
  <path d="M97.9 21.2C100.1 21.2 101.7 22.6 101.7 24.9C101.7 27.2 100.1 28.6 97.9 28.6H97V30H93.7V21.2H97.9ZM97.5 25.8C98 25.8 98.4 25.4 98.4 24.9C98.4 24.4 98 24 97.5 24H97V25.8H97.5Z" fill="white"/>
  <path d="M108.5 21.2H111.8V30H109L106.3 26.1V30H103V21.2H105.8L108.5 25.1V21.2Z" fill="white"/>
</svg>
