<?xml version="1.0" encoding="UTF-8"?>
<svg width="135" height="40" viewBox="0 0 135 40" fill="none" xmlns="http://www.w3.org/2000/svg">
  <rect width="135" height="40" rx="6" fill="#000000"/>
  <path d="M21.6 19.8H25.3L29.1 30H25.6L25 28.1H21.9L21.3 30H17.8L21.6 19.8ZM24.3 25.7L23.5 23.2L22.6 25.7H24.3Z" fill="white"/>
  <path d="M29.3 21.2H32.6V27.2H35.5V30H29.3V21.2Z" fill="white"/>
  <path d="M36.1 21.2H39.4V30H36.1V21.2Z" fill="white"/>
  <path d="M47.1 21.2H50.4V30H47.6L44.9 26.1V30H41.6V21.2H44.4L47.1 25.1V21.2Z" fill="white"/>
  <path d="M51.3 21.2H57.4V24H54.5V24.5H57V27.2H54.5V27.7H57.4V30H51.3V21.2Z" fill="white"/>
  <path d="M64.7 21.2H68V30H65.2L62.5 26.1V30H59.2V21.2H62L64.7 25.1V21.2Z" fill="white"/>
  <path d="M74.3 21.2H77.6V30H74.8L72.1 26.1V30H68.8V21.2H71.6L74.3 25.1V21.2Z" fill="white"/>
  <path d="M83.9 21.2H87.2V30H84.4L81.7 26.1V30H78.4V21.2H81.2L83.9 25.1V21.2Z" fill="white"/>
  <path d="M88.1 21.2H94.2V24H91.3V24.5H93.8V27.2H91.3V27.7H94.2V30H88.1V21.2Z" fill="white"/>
  <path d="M101.5 21.2H104.8V30H102L99.3 26.1V30H96V21.2H98.8L101.5 25.1V21.2Z" fill="white"/>
  <path d="M111.1 21.2H114.4V30H111.6L108.9 26.1V30H105.6V21.2H108.4L111.1 25.1V21.2Z" fill="white"/>
</svg>
