<?xml version="1.0" encoding="UTF-8"?>
<svg width="200" height="200" viewBox="0 0 200 200" fill="none" xmlns="http://www.w3.org/2000/svg">
  <path d="M100 180C144.183 180 180 144.183 180 100C180 55.8172 144.183 20 100 20C55.8172 20 20 55.8172 20 100C20 144.183 55.8172 180 100 180Z" fill="#6C5CE7" fill-opacity="0.1"/>
  <path d="M100 170C138.66 170 170 138.66 170 100C170 61.3401 138.66 30 100 30C61.3401 30 30 61.3401 30 100C30 138.66 61.3401 170 100 170Z" stroke="#6C5CE7" stroke-width="8"/>
  <path d="M100 150C127.614 150 150 127.614 150 100C150 72.3858 127.614 50 100 50C72.3858 50 50 72.3858 50 100C50 127.614 72.3858 150 100 150Z" fill="#6C5CE7"/>
  <path d="M85 90C85 82.8203 90.8203 77 98 77H102C109.18 77 115 82.8203 115 90V110C115 117.18 109.18 123 102 123H98C90.8203 123 85 117.18 85 110V90Z" fill="white"/>
  <path d="M115 90H125C132.18 90 138 95.8203 138 103V103C138 110.18 132.18 116 125 116H115V90Z" fill="white"/>
  <path d="M85 100H75C67.8203 100 62 105.82 62 113V113C62 120.18 67.8203 126 75 126H85V100Z" fill="white"/>
</svg>
