<?xml version="1.0" encoding="UTF-8"?>
<svg width="100" height="100" viewBox="0 0 100 100" fill="none" xmlns="http://www.w3.org/2000/svg">
  <path d="M83.3333 16.6667H16.6667C12.0833 16.6667 8.33334 20.4167 8.33334 25V75C8.33334 79.5833 12.0833 83.3333 16.6667 83.3333H83.3333C87.9167 83.3333 91.6667 79.5833 91.6667 75V25C91.6667 20.4167 87.9167 16.6667 83.3333 16.6667ZM83.3333 75H16.6667V41.6667H83.3333V75ZM83.3333 33.3333H16.6667V25H83.3333V33.3333Z" fill="#6C5CE7"/>
  <path d="M50 50C45.4167 50 41.6667 53.75 41.6667 58.3333C41.6667 62.9167 45.4167 66.6667 50 66.6667C54.5833 66.6667 58.3333 62.9167 58.3333 58.3333C58.3333 53.75 54.5833 50 50 50Z" fill="#6C5CE7"/>
</svg>
