<?xml version="1.0" encoding="UTF-8"?>
<svg width="100" height="100" viewBox="0 0 100 100" fill="none" xmlns="http://www.w3.org/2000/svg">
  <path d="M83.3333 29.1667H70.8333V25C70.8333 20.4167 67.0833 16.6667 62.5 16.6667H37.5C32.9167 16.6667 29.1667 20.4167 29.1667 25V29.1667H16.6667C12.0833 29.1667 8.33334 32.9167 8.33334 37.5V75C8.33334 79.5833 12.0833 83.3333 16.6667 83.3333H83.3333C87.9167 83.3333 91.6667 79.5833 91.6667 75V37.5C91.6667 32.9167 87.9167 29.1667 83.3333 29.1667ZM37.5 25H62.5V29.1667H37.5V25ZM83.3333 75H16.6667V37.5H83.3333V75Z" fill="#6C5CE7"/>
  <path d="M50 45.8333C44.6667 45.8333 40.8333 49.6667 40.8333 55C40.8333 60.3333 44.6667 64.1667 50 64.1667C55.3333 64.1667 59.1667 60.3333 59.1667 55C59.1667 49.6667 55.3333 45.8333 50 45.8333ZM54.1667 56.6667H45.8333V53.3333H54.1667V56.6667Z" fill="#6C5CE7"/>
</svg>
