<?xml version="1.0" encoding="UTF-8"?>
<svg width="100" height="100" viewBox="0 0 100 100" fill="none" xmlns="http://www.w3.org/2000/svg">
  <path d="M50 8.33334C27.0833 8.33334 8.33334 27.0833 8.33334 50C8.33334 72.9167 27.0833 91.6667 50 91.6667C72.9167 91.6667 91.6667 72.9167 91.6667 50C91.6667 27.0833 72.9167 8.33334 50 8.33334ZM50 83.3333C31.75 83.3333 16.6667 68.25 16.6667 50C16.6667 31.75 31.75 16.6667 50 16.6667C68.25 16.6667 83.3333 31.75 83.3333 50C83.3333 68.25 68.25 83.3333 50 83.3333Z" fill="#6C5CE7"/>
  <path d="M50 33.3333C45.4167 33.3333 41.6667 37.0833 41.6667 41.6667C41.6667 46.25 45.4167 50 50 50C54.5833 50 58.3333 46.25 58.3333 41.6667C58.3333 37.0833 54.5833 33.3333 50 33.3333ZM50 45.8333C47.6667 45.8333 45.8333 44 45.8333 41.6667C45.8333 39.3333 47.6667 37.5 50 37.5C52.3333 37.5 54.1667 39.3333 54.1667 41.6667C54.1667 44 52.3333 45.8333 50 45.8333Z" fill="#6C5CE7"/>
  <path d="M50 20.8333C34.1667 20.8333 21.6667 33.3333 21.6667 49.1667C21.6667 59.1667 26.6667 68.3333 34.5833 73.75L37.0833 70.4167C30.4167 65.8333 26.25 57.9167 26.25 49.1667C26.25 35.8333 36.6667 25.4167 50 25.4167C63.3333 25.4167 73.75 35.8333 73.75 49.1667C73.75 57.9167 69.5833 65.8333 62.9167 70.4167L65.4167 73.75C73.3333 68.3333 78.3333 59.1667 78.3333 49.1667C78.3333 33.3333 65.8333 20.8333 50 20.8333Z" fill="#6C5CE7"/>
  <path d="M65.8333 58.3333L59.1667 51.6667L56.25 54.5833L65.8333 64.1667L85.8333 44.1667L82.9167 41.25L65.8333 58.3333Z" fill="#6C5CE7"/>
</svg>
