<?xml version="1.0" encoding="UTF-8"?>
<svg width="100" height="100" viewBox="0 0 100 100" fill="none" xmlns="http://www.w3.org/2000/svg">
  <path d="M83.3333 16.6667H16.6667C12.0833 16.6667 8.33333 20.4167 8.33333 25V75C8.33333 79.5833 12.0833 83.3333 16.6667 83.3333H83.3333C87.9167 83.3333 91.6667 79.5833 91.6667 75V25C91.6667 20.4167 87.9167 16.6667 83.3333 16.6667ZM83.3333 75H16.6667V41.6667H83.3333V75ZM83.3333 33.3333H16.6667V25H83.3333V33.3333Z" fill="#6C5CE7"/>
  <path d="M29.1667 58.3333H45.8333C47.6667 58.3333 49.1667 56.8333 49.1667 55V50C49.1667 48.1667 47.6667 46.6667 45.8333 46.6667H29.1667C27.3333 46.6667 25.8333 48.1667 25.8333 50V55C25.8333 56.8333 27.3333 58.3333 29.1667 58.3333Z" fill="#6C5CE7"/>
</svg>
