<?xml version="1.0" encoding="UTF-8"?>
<svg width="100" height="100" viewBox="0 0 100 100" fill="none" xmlns="http://www.w3.org/2000/svg">
  <path d="M50 8.33334C27.0833 8.33334 8.33334 27.0833 8.33334 50C8.33334 72.9167 27.0833 91.6667 50 91.6667C72.9167 91.6667 91.6667 72.9167 91.6667 50C91.6667 27.0833 72.9167 8.33334 50 8.33334ZM45.8333 75V45.8333H54.1667V75H45.8333ZM50 37.5C47.25 37.5 45 35.25 45 32.5C45 29.75 47.25 27.5 50 27.5C52.75 27.5 55 29.75 55 32.5C55 35.25 52.75 37.5 50 37.5Z" fill="#6C5CE7"/>
</svg>
