<?xml version="1.0" encoding="UTF-8"?>
<svg width="100" height="100" viewBox="0 0 100 100" fill="none" xmlns="http://www.w3.org/2000/svg">
  <path d="M50 8.33334C27.0833 8.33334 8.33334 27.0833 8.33334 50C8.33334 72.9167 27.0833 91.6667 50 91.6667C72.9167 91.6667 91.6667 72.9167 91.6667 50C91.6667 27.0833 72.9167 8.33334 50 8.33334ZM50 83.3333C31.75 83.3333 16.6667 68.25 16.6667 50C16.6667 31.75 31.75 16.6667 50 16.6667C68.25 16.6667 83.3333 31.75 83.3333 50C83.3333 68.25 68.25 83.3333 50 83.3333Z" fill="#6C5CE7"/>
  <path d="M50 25C45.8333 25 41.6667 25.8333 37.9167 27.5C36.25 28.3333 35.8333 30.4167 36.6667 32.0833C37.5 33.75 39.5833 34.1667 41.25 33.3333C44.0833 32.0833 47.0833 31.6667 50 31.6667C59.5833 31.6667 67.5 39.5833 67.5 49.1667C67.5 52.0833 66.6667 55.0833 65.4167 57.9167C64.5833 59.5833 65 61.6667 66.6667 62.5C67.0833 62.75 67.5 62.9167 68.3333 62.9167C69.5833 62.9167 70.8333 62.25 71.6667 61.25C73.3333 57.5 74.1667 53.3333 74.1667 49.1667C74.1667 35.8333 63.3333 25 50 25Z" fill="#6C5CE7"/>
  <path d="M33.3333 37.5C31.6667 36.6667 29.5833 37.0833 28.75 38.75C27.0833 42.5 25.8333 46.6667 25.8333 50.8333C25.8333 64.1667 36.6667 75 50 75C54.1667 75 58.3333 74.1667 62.0833 72.5C63.75 71.6667 64.1667 69.5833 63.3333 67.9167C62.5 66.25 60.4167 65.8333 58.75 66.6667C55.9167 67.9167 52.9167 68.3333 50 68.3333C40.4167 68.3333 32.5 60.4167 32.5 50.8333C32.5 47.9167 33.3333 44.9167 34.5833 42.0833C35.4167 40.4167 35 38.3333 33.3333 37.5Z" fill="#6C5CE7"/>
</svg>
