<?xml version="1.0" encoding="UTF-8"?>
<svg width="100" height="100" viewBox="0 0 100 100" fill="none" xmlns="http://www.w3.org/2000/svg">
  <path d="M83.3333 16.6667H16.6667C12.0833 16.6667 8.33334 20.4167 8.33334 25V75C8.33334 79.5833 12.0833 83.3333 16.6667 83.3333H83.3333C87.9167 83.3333 91.6667 79.5833 91.6667 75V25C91.6667 20.4167 87.9167 16.6667 83.3333 16.6667ZM83.3333 75H16.6667V41.6667H83.3333V75ZM83.3333 33.3333H16.6667V25H83.3333V33.3333Z" fill="#6C5CE7"/>
  <path d="M29.1667 50H45.8333V58.3333H29.1667V50ZM54.1667 50H70.8333V58.3333H54.1667V50ZM29.1667 66.6667H45.8333V75H29.1667V66.6667ZM54.1667 66.6667H70.8333V75H54.1667V66.6667Z" fill="#6C5CE7"/>
</svg>
