<?xml version="1.0" encoding="UTF-8"?>
<svg width="100" height="100" viewBox="0 0 100 100" fill="none" xmlns="http://www.w3.org/2000/svg">
  <path d="M50 8.33334C27.0833 8.33334 8.33334 27.0833 8.33334 50C8.33334 72.9167 27.0833 91.6667 50 91.6667C72.9167 91.6667 91.6667 72.9167 91.6667 50C91.6667 27.0833 72.9167 8.33334 50 8.33334ZM50 83.3333C31.75 83.3333 16.6667 68.25 16.6667 50C16.6667 31.75 31.75 16.6667 50 16.6667C68.25 16.6667 83.3333 31.75 83.3333 50C83.3333 68.25 68.25 83.3333 50 83.3333Z" fill="#6C5CE7"/>
  <path d="M54.1667 29.1667H45.8333V54.1667H70.8333V45.8333H54.1667V29.1667Z" fill="#6C5CE7"/>
</svg>
