<?xml version="1.0" encoding="UTF-8"?>
<svg width="100" height="100" viewBox="0 0 100 100" fill="none" xmlns="http://www.w3.org/2000/svg">
  <path d="M50 8.33334C27.0833 8.33334 8.33334 27.0833 8.33334 50C8.33334 72.9167 27.0833 91.6667 50 91.6667C72.9167 91.6667 91.6667 72.9167 91.6667 50C91.6667 27.0833 72.9167 8.33334 50 8.33334ZM50 83.3333C31.75 83.3333 16.6667 68.25 16.6667 50C16.6667 31.75 31.75 16.6667 50 16.6667C68.25 16.6667 83.3333 31.75 83.3333 50C83.3333 68.25 68.25 83.3333 50 83.3333Z" fill="#6C5CE7"/>
  <path d="M62.5 37.5H54.1667V33.3333C54.1667 31.5 52.6667 30 50.8333 30H49.1667C47.3333 30 45.8333 31.5 45.8333 33.3333V37.5H37.5C35.6667 37.5 34.1667 39 34.1667 40.8333V42.5C34.1667 44.3333 35.6667 45.8333 37.5 45.8333H62.5C64.3333 45.8333 65.8333 44.3333 65.8333 42.5V40.8333C65.8333 39 64.3333 37.5 62.5 37.5ZM50 37.5H50.8333V33.3333H49.1667V37.5H50Z" fill="#6C5CE7"/>
  <path d="M58.3333 50H41.6667V70.8333H58.3333V50Z" fill="#6C5CE7"/>
</svg>
