<?xml version="1.0" encoding="UTF-8"?>
<svg width="24" height="24" viewBox="0 0 24 24" fill="none" xmlns="http://www.w3.org/2000/svg">
  <path d="M12 2C6.48 2 2 6.48 2 12C2 17.52 6.48 22 12 22C17.52 22 22 17.52 22 12C22 6.48 17.52 2 12 2ZM12 7C13.66 7 15 8.34 15 10C15 11.66 13.66 13 12 13C10.34 13 9 11.66 9 10C9 8.34 10.34 7 12 7ZM12 20C9.33 20 6.98 18.67 5.58 16.6C5.53 16.53 5.5 16.44 5.5 16.35C5.5 16.22 5.59 16.11 5.71 16.08C7.85 15.44 9.91 15 12 15C14.09 15 16.15 15.44 18.29 16.08C18.41 16.11 18.5 16.22 18.5 16.35C18.5 16.44 18.47 16.53 18.42 16.6C17.02 18.67 14.67 20 12 20Z" fill="white"/>
</svg>
